<svg xmlns="http://www.w3.org/2000/svg" fill="none" viewBox="0 0 96 96" id="Adobe-Illustrator--Streamline-Svg-Logos"><desc>Adobe Illustrator Streamline Icon: https://streamlinehq.com</desc><path fill="#330000" d="M79.3945 2.1748h-62.789C7.98681 2.1748 1 9.16161 1 17.7803v60.439c0 8.6187 6.98681 15.6055 15.6055 15.6055h62.789C88.0132 93.8248 95 86.838 95 78.2193v-60.439c0 -8.61869 -6.9868 -15.6055 -15.6055 -15.6055Z" stroke-width="1"></path><path fill="#ff9a00" d="M46.5508 57.1758H31.9844l-2.9637 9.2066c-0.0834 0.3463 -0.401 0.5845 -0.7568 0.5675h-7.3778c-0.4207 0 -0.5678 -0.2312 -0.4414 -0.6936l12.6116 -36.3217c0.1262 -0.3783 0.2524 -0.8092 0.3785 -1.2927 0.1649 -0.8413 0.2494 -1.6964 0.2522 -2.5538 -0.0174 -0.1215 0.0235 -0.2442 0.1104 -0.331 0.0868 -0.0869 0.2094 -0.1278 0.331 -0.1105h10.0261c0.2938 0 0.4619 0.1052 0.5045 0.3154l14.3144 40.3573c0.1261 0.4207 -0.0001 0.6309 -0.3785 0.6306h-8.1976c-0.2913 0.0323 -0.5612 -0.1567 -0.6305 -0.4414l-3.216 -9.3327Zm-12.2964 -7.9453h9.9633l-0.1418 -0.4689 -0.2283 -0.7425 -0.1625 -0.5212 -0.2596 -0.8209 -0.552 -1.7286 -0.4854 -1.5324 -1.2604 -3.9911c-0.3242 -1.0269 -0.6253 -2.023 -0.9033 -2.9882l-0.2307 -0.8112 -0.2696 -0.9598 -0.4114 -1.4868c-0.0258 -0.0945 -0.0513 -0.188 -0.0766 -0.2805h-0.0631c-0.3155 1.5138 -0.6998 3.0124 -1.1516 4.4911l-0.9356 3.009 -0.5147 1.6626 -0.5195 1.6833c-0.0939 0.3041 -0.1874 0.6046 -0.2808 0.9017l-0.2791 0.8808 -0.2777 0.8597 -0.2761 0.8388 -0.2745 0.8178c-0.0913 0.2691 -0.1823 0.5347 -0.273 0.7968l-0.136 0.3905Zm33.2311 -16.8996c-1.3008 0.0522 -2.5623 -0.4524 -3.4682 -1.3873 -0.9022 -0.9741 -1.3789 -2.2677 -1.3244 -3.5943 -0.0463 -1.3153 0.4697 -2.5881 1.4188 -3.4998 0.9064 -0.87 2.1125 -1.3551 3.3654 -1.3573l0.1344 0.0016c1.5135 0 2.7011 0.4519 3.5629 1.3557 0.8785 0.9487 1.3436 2.2078 1.2926 3.4998 0.0533 1.3322 -0.4359 2.6291 -1.3557 3.5943 -0.9299 0.9167 -2.1893 1.4172 -3.491 1.3918l-0.1348 -0.0045Zm-4.3512 33.9884V36.1774c0 -0.3783 0.1675 -0.5676 0.5045 -0.5676h7.7563c0.336 0 0.5041 0.1892 0.5045 0.5676v30.1419c0 0.4207 -0.1682 0.6309 -0.5045 0.6306h-7.6932c-0.3584 0 -0.547 -0.1887 -0.566 -0.566l-0.0016 -0.0646Z" stroke-width="1"></path></svg>