<svg xmlns="http://www.w3.org/2000/svg" role="img" id="Alx--Streamline-Simple-Icons" viewBox="0 5.88 24 12.24"><desc>Alx Streamline Icon: https://streamlinehq.com</desc><title>ALX</title><path d="m13.732 5.879 -2.903 1.299V18.12h2.903V5.879Zm3.219 1.436c-0.361 0.36 -1.59 1.587 -1.977 1.978 0.839 0.851 1.684 1.696 2.527 2.543l-2.529 2.529 1.978 1.978c0.844 -0.842 1.686 -1.686 2.529 -2.529l2.543 2.529c0.66 -0.659 1.319 -1.319 1.978 -1.98 -0.848 -0.841 -1.695 -1.684 -2.543 -2.527L24 9.293l-1.978 -1.978 -2.543 2.543 -2.528 -2.543ZM6.157 9.271v0.382C3.256 8.379 0.002 10.503 0 13.671c0.001 3.169 3.256 5.293 6.157 4.018v0.431H9.06V9.271H6.157ZM4.39 11.902c0.978 0 1.718 0.741 1.767 1.674v0.19a1.77 1.77 0 0 1 -1.767 1.675c-0.946 0 -1.77 -0.792 -1.77 -1.77s0.792 -1.77 1.77 -1.77v0.001Z" fill="#000000" stroke-width="1"/></svg>