<svg xmlns="http://www.w3.org/2000/svg" fill="none" viewBox="0 0 96 96" id="Google-Marketing-Platform--Streamline-Svg-Logos"><desc>Google Marketing Platform Streamline Icon: https://streamlinehq.com</desc><path fill="#ea4335" d="M64.5967 31.4031c9.1797 9.1797 9.1797 24.0508 0 33.2305-4.5899 4.5898-4.5899 12.0437 0 16.5969 4.5898 4.5898 12.0437 4.5898 16.6336 0 18.3594-18.3594 18.3594-48.1016 0-66.461L64.5967 31.4031Z"></path><path fill="url(#a)" d="M81.1937 14.7695c-18.3593-18.35934-48.0648-18.35934-66.4242 0-18.35934 18.3594-18.35934 48.1016 0 66.461l16.6336-16.5969c-9.1797-9.1797-9.1797-24.0508 0-33.2305s24.0508-9.1797 33.2305 0c4.5898 4.5899 12.0437 4.5899 16.6336 0 4.5164-4.5898 4.5164-12.0437-.0735-16.6336Z"></path><path fill="#fbbc04" d="M81.1939 81.2305 64.5604 64.6336c-9.1797 9.1797-24.0508 9.1797-33.2305 0L14.6963 81.2305c18.4328 18.3594 48.1383 18.3594 66.4976 0Z"></path><path fill="#ea4335" d="M64.5967 64.6336c4.5898-4.5898 12.007-4.5898 16.5969 0 4.5898 4.5899 4.5898 12.0438 0 16.6336-4.5899 4.5898-12.0071 4.5898-16.5969 0-4.5899-4.5898-4.5899-12.0437 0-16.6336Z"></path><path fill="#34a853" d="M14.7695 64.6336c4.5899-4.5898 12.0071-4.5898 16.5969 0 4.5898 4.5899 4.5898 12.0438 0 16.6336-4.5898 4.5898-12.007 4.5898-16.5969 0-4.5898-4.5898-4.5898-12.0437 0-16.6336Z"></path><defs><linearGradient id="a" x1="1" x2="8365.48" y1="4012.52" y2="4012.52" gradientUnits="userSpaceOnUse"><stop stop-color="#246fdb"></stop><stop offset=".055" stop-color="#2973df"></stop><stop offset=".278" stop-color="#377deb"></stop><stop offset=".549" stop-color="#3f83f2"></stop><stop offset="1" stop-color="#4285f4"></stop></linearGradient></defs></svg>