<svg xmlns="http://www.w3.org/2000/svg" fill="none" viewBox="0 0 96 96" id="Hubspot--Streamline-Svg-Logos"><desc>Hubspot Streamline Icon: https://streamlinehq.com</desc><path fill="#45535e" d="M1 39.4533h3.27769v7.2821h6.91281v-7.2821h3.282v17.8753h-3.282v-7.4351H4.27769v7.4351H1V39.4533Z" stroke-width="1"></path><path fill="#45535e" d="M24.8559 51.5064c0 1.4964 -1.2192 2.714 -2.7152 2.714 -1.4965 0 -2.7149 -1.2176 -2.7149 -2.714v-7.6959h-3.1084v7.6959c0 3.2107 2.6125 5.8223 5.8233 5.8223 3.2102 0 5.8225 -2.6116 5.8225 -5.8223v-7.6959h-3.1073v7.6959Z" stroke-width="1"></path><path fill="#45535e" d="M36.6408 43.9005c-1.5419 0 -2.6182 0.4475 -3.6575 1.4678v-5.915h-3.1186v10.962c0 4.1032 2.9667 6.9133 6.2997 6.9133 3.7053 0 6.9517 -2.8602 6.9517 -6.7139 0 -3.8048 -2.9936 -6.7142 -6.4753 -6.7142Zm0.0775 10.5431c-2.1131 0 -3.729 -1.7648 -3.729 -3.8289 0 -2.0644 1.6159 -3.8297 3.729 -3.8297 1.7905 0 3.4073 1.7653 3.4073 3.8297 0 2.0641 -1.6168 3.8289 -3.4073 3.8289Z" stroke-width="1"></path><path fill="#45535e" d="M48.3543 44.6862c0 -1.5676 1.0445 -2.0647 2.188 -2.0647 0.9206 0 2.1388 0.6963 2.9338 1.5419l2.0385 -2.387c-1.0188 -1.3675 -3.0823 -2.3127 -4.7733 -2.3127 -3.3821 0 -5.8191 1.9646 -5.8191 5.2225 0 6.0423 7.4354 4.127 7.4354 7.5097 0 1.0432 -1.0192 1.9642 -2.1873 1.9642 -1.8408 0 -2.4379 -0.8953 -3.283 -1.8404l-2.2633 2.337c1.4431 1.7658 3.2329 2.6614 5.3717 2.6614 3.2076 0 5.7938 -1.9894 5.7938 -5.0981 0 -6.7137 -7.4352 -4.6246 -7.4352 -7.5338Z" stroke-width="1"></path><path fill="#45535e" d="M63.9988 43.7255c-3.3325 0 -6.2996 2.8084 -6.2996 6.9124v10.9904h3.1183v-5.9431c1.0396 1.0196 2.1153 1.4677 3.6578 1.4677 3.4815 0 6.4755 -2.909 6.4755 -6.7138 0 -3.8542 -3.2474 -6.7136 -6.952 -6.7136Zm0.5542 10.5434c-2.113 0 -3.729 -1.7672 -3.729 -3.8298 0 -2.0644 1.616 -3.8298 3.729 -3.8298 1.7901 0 3.4071 1.7654 3.4071 3.8298 0 2.0626 -1.617 3.8298 -3.4071 3.8298Z" stroke-width="1"></path><path fill="#45535e" d="M93.9048 54.4436c-1.8393 0 -2.3615 -0.7954 -2.3615 -2.0143v-5.3957h2.8591v-2.735h-2.8591v-3.606l-3.1571 1.4171v10.991c0 2.8103 1.9389 4.2279 4.5984 4.2279 0.3978 0 0.9455 -0.0257 1.2443 -0.0994l0.7709 -2.8344c-0.3481 0.024 -0.7458 0.0488 -1.095 0.0488Z" stroke-width="1"></path><path fill="#f8761f" d="M85.681 47.1926c-0.5978 -1.0285 -1.4387 -1.8531 -2.49 -2.4739 -0.7856 -0.4573 -1.6003 -0.7476 -2.5183 -0.8723v-3.2681c0.918 -0.3898 1.4877 -1.2525 1.4877 -2.2591 0 -1.3718 -1.1001 -2.4836 -2.4709 -2.4836 -1.3719 0 -2.4913 1.1118 -2.4913 2.4836 0 1.0066 0.5369 1.8693 1.4549 2.2591v3.2696c-0.7344 0.1061 -1.496 0.3351 -2.1915 0.6869 -1.4206 -1.0789 -6.0786 -4.6182 -8.8034 -6.6854 0.0646 -0.233 0.1144 -0.4731 0.1144 -0.7265 0 -1.5195 -1.2306 -2.7511 -2.7506 -2.7511 -1.5201 0 -2.75 1.2316 -2.75 2.7511 0 1.5193 1.2312 2.7513 2.7513 2.7513 0.5185 0 0.998 -0.1517 1.4119 -0.401l0.575 0.4362 7.9016 5.6932c-0.4177 0.3836 -0.8068 0.8198 -1.118 1.3093 -0.6307 0.9979 -1.016 2.0958 -1.016 3.2935v0.2498c0 0.8408 0.1597 1.6345 0.4318 2.3801 0.2396 0.6511 0.5899 1.243 1.0238 1.7782l-2.6224 2.6288c-0.2327 -0.0857 -0.477 -0.1327 -0.7321 -0.1327 -0.5677 0 -1.1001 0.2218 -1.5017 0.6226 -0.4019 0.4019 -0.622 0.9356 -0.622 1.5037 0.0002 0.5679 0.2214 1.1016 0.6231 1.5032 0.4016 0.4017 0.9353 0.6231 1.5034 0.6231s1.102 -0.2214 1.5039 -0.6231c0.401 -0.4016 0.6224 -0.9355 0.6224 -1.5032 0 -0.2198 -0.034 -0.4342 -0.0979 -0.638l2.7106 -2.7109c0.3716 0.2566 0.7729 0.4727 1.2044 0.6591 0.851 0.3679 1.7903 0.5921 2.8183 0.5921h0.1884c1.1365 0 2.2086 -0.2669 3.2164 -0.813 1.0619 -0.577 1.8931 -1.3662 2.521 -2.3736 0.6313 -1.0102 0.9788 -2.1263 0.9788 -3.3542v-0.0614c0 -1.2079 -0.2796 -2.3224 -0.867 -3.3434Zm-3.3118 5.6868c-0.7357 0.8175 -1.5814 1.3212 -2.5374 1.3212h-0.1575c-0.5461 0 -1.0802 -0.151 -1.6031 -0.4254 -0.5893 -0.3023 -1.0373 -0.7334 -1.404 -1.2792 -0.3789 -0.5358 -0.5846 -1.1207 -0.5846 -1.7409v-0.1884c0 -0.6098 0.117 -1.1879 0.4118 -1.734 0.3153 -0.5969 0.7411 -1.061 1.3073 -1.43 0.556 -0.3665 1.1497 -0.5463 1.8111 -0.5463h0.0615c0.5996 0 1.1673 0.1183 1.7031 0.3924 0.5458 0.2923 0.9918 0.6916 1.3375 1.2169 0.3358 0.5255 0.5356 1.0923 0.5999 1.7097 0.0101 0.1284 0.0152 0.2598 0.0152 0.3854 0 0.838 -0.3202 1.6141 -0.9608 2.3186Z" stroke-width="1"></path></svg>