<svg xmlns="http://www.w3.org/2000/svg" fill="none" viewBox="0 0 96 96" id="Ibm--Streamline-Svg-Logos"><desc>Ibm Streamline Icon: https://streamlinehq.com</desc><path fill="#000000" d="M19.2778 64.1414v2.6111H1v-2.6111h18.2778Zm28.564 -0.0001c-1.8335 1.6856 -4.2351 2.618 -6.7257 2.6111l-19.2272 -0.0258v-2.5853h25.9529Zm27.177 0 -0.9118 2.6111 -0.9035 -2.6111h1.8153Zm-8.741 0.0001v2.6111H53.2223v-2.6111h13.0555Zm28.7222 0v2.6111H81.9444v-2.6111H95Zm-44.2008 -4.9848c-0.224 0.9159 -0.5778 1.7951 -1.0504 2.6111H21.8889v-2.6111h28.9103Zm25.9695 0 -0.9165 2.6112h-3.4821l-0.9165 -2.6112h5.3151Zm-10.4909 0v2.6111H53.2223v-2.6111h13.0555Zm28.7222 0v2.6111H81.9444v-2.6111H95Zm-75.7222 0v2.6111H1v-2.6111h18.2778Zm-5.2223 -4.9849v2.6111H6.2222v-2.6111h7.8333Zm20.889 0v2.6111h-7.8334v-2.6111h7.8334Zm15.7921 0c0.2314 0.8511 0.3488 1.7291 0.3493 2.6111H42.303v-2.6111h8.4336Zm27.7823 0 -0.9168 2.6111h-6.9819l-0.9168 -2.6111h8.8155Zm-12.2411 0v2.6111h-7.8333v-2.6111h7.8333Zm23.5 0v2.6111h-7.8334v-2.6111h7.8334Zm-75.7223 -4.9848v2.6111H6.2222v-2.6111h7.8333Zm52.2223 0v2.6111h-7.8333v-2.6111h7.8333Zm23.5 0v2.6111h-7.8334v-2.6111h7.8334Zm-42.21 -0.0001c0.8696 0.7397 1.6062 1.6228 2.178 2.611H27.111v-2.611h20.4568Zm32.7009 0 -0.9165 2.6111H68.8701l-0.9165 -2.6111h12.3151Zm-6.8916 -4.9847 0.734 2.1106 0.7338 -2.1106h14.9328v2.6112h-7.8331v-2.3994l-0.8425 2.3994H67.1202l-0.8425 -2.3997v2.3997h-7.8331v-2.6112h14.9325Zm-46.266 -0.0001 22.6349 0.0002c-0.5718 0.9882 -1.3085 1.8713 -2.1781 2.6111H27.1111V44.202Zm-13.0556 0v2.6111H6.2222V44.202h7.8333Zm0 -4.9848v2.6111H6.2222v-2.6111h7.8333Zm20.889 0v2.6111h-7.8334v-2.6111h7.8334Zm16.1414 0c-0.0005 0.882 -0.1179 1.76 -0.3493 2.6111H42.303v-2.6111h8.7829Zm20.5577 0 0.908 2.6111h-14.107v-2.6111h13.199Zm18.1341 0v2.6111h-14.107l0.9079 -2.6111h13.1991Zm-70.4999 -4.9849v2.6111H1v-2.6111h18.2778Zm30.471 0c0.4726 0.8159 0.8263 1.6952 1.0504 2.6111H21.8889v-2.6111h27.8599ZM95 34.2322v2.6112H77.4041l0.908 -2.6112H95Zm-25.0898 0 0.908 2.6112H53.2223v-2.6112h16.6879Zm-50.6324 -4.9847v2.6111H1v-2.6111h18.2778Zm21.8383 0c2.4899 -0.0033 4.8903 0.9285 6.7256 2.6111H21.8889v-2.6111h19.2272ZM95 29.2476v2.6111H79.1375l0.908 -2.6111H95Zm-26.8232 0 0.908 2.6111H53.2223v-2.6111h14.9545Z" stroke-width="1"></path></svg>