<?xml version="1.0" encoding="UTF-8"?>
<svg version="1.1" xmlns="http://www.w3.org/2000/svg" width="390" height="90">
<path d="M0 0 C4.29 0 8.58 0 13 0 C14.53175867 3.73462231 16.06229866 7.46971011 17.58984375 11.20605469 C18.10900286 12.47489505 18.6288482 13.74345488 19.14941406 15.01171875 C19.90092874 16.8429959 20.64970775 18.67539495 21.3984375 20.5078125 C22.07398682 22.15740967 22.07398682 22.15740967 22.76318359 23.84033203 C23.94757931 26.866082 25.00203441 29.90834333 26 33 C28.57380162 30.42619838 29.40924941 27.9058834 30.78515625 24.53125 C31.17688271 23.57708191 31.17688271 23.57708191 31.57652283 22.6036377 C32.40991714 20.57099145 33.23638715 18.53561509 34.0625 16.5 C34.89364327 14.46500779 35.72617555 12.43058966 36.55918884 10.3963623 C37.31401181 8.55100253 38.06541146 6.7042436 38.81665039 4.85742188 C39.49587031 3.21731668 40.20611276 1.58777448 41 0 C42.97909398 -0.02686553 44.95828971 -0.04633375 46.9375 -0.0625 C48.03964844 -0.07410156 49.14179688 -0.08570312 50.27734375 -0.09765625 C53 0 53 0 54 1 C54.09831146 2.49870048 54.12798456 4.00198539 54.12939453 5.50390625 C54.13254669 6.46159912 54.13569885 7.41929199 54.13894653 8.40600586 C54.1369223 9.44764893 54.13489807 10.48929199 54.1328125 11.5625 C54.13376923 12.62412354 54.13472595 13.68574707 54.13571167 14.77954102 C54.13639364 17.02913472 54.13453819 19.27873037 54.13037109 21.52832031 C54.1250231 24.98507071 54.13031554 28.44169117 54.13671875 31.8984375 C54.13605797 34.07812529 54.13477682 36.257813 54.1328125 38.4375 C54.13483673 39.47914307 54.13686096 40.52078613 54.13894653 41.59399414 C54.13421829 43.03053345 54.13421829 43.03053345 54.12939453 44.49609375 C54.12859894 45.34357178 54.12780334 46.1910498 54.12698364 47.06420898 C54 49 54 49 53 50 C50.03 50 47.06 50 44 50 C43.67 39.44 43.34 28.88 43 18 C38.71 28.56 34.42 39.12 30 50 C28.02 50 26.04 50 24 50 C18.45058996 39.65791765 14.27970507 28.92062673 10 18 C9.67 28.56 9.34 39.12 9 50 C6.03 50 3.06 50 0 50 C0 33.5 0 17 0 0 Z " fill="#868686" transform="translate(109,20)"/>
<path d="M0 0 C13.2 0 26.4 0 40 0 C40 13.2 40 26.4 40 40 C26.8 40 13.6 40 0 40 C0 26.8 0 13.6 0 0 Z " fill="#15A9ED" transform="translate(4,46)"/>
<path d="M0 0 C1.6451094 0.00025112 3.29022405 0.00581355 4.93530273 0.01586914 C6.083797 0.01737976 6.083797 0.01737976 7.25549316 0.0189209 C10.12664275 0.02416876 12.99777106 0.03812992 15.86889648 0.05102539 C22.28327148 0.07165039 28.69764648 0.09227539 35.30639648 0.11352539 C35.30639648 13.31352539 35.30639648 26.51352539 35.30639648 40.11352539 C22.10639648 40.11352539 8.90639648 40.11352539 -4.69360352 40.11352539 C-4.71422852 33.69915039 -4.73485352 27.28477539 -4.75610352 20.67602539 C-4.76520752 18.64905518 -4.77431152 16.62208496 -4.78369141 14.53369141 C-4.78661055 12.93660549 -4.78915911 11.33951884 -4.79125977 9.74243164 C-4.79637573 8.90546753 -4.8014917 8.06850342 -4.8067627 7.20617676 C-4.80707276 5.17494274 -4.75600539 3.14380068 -4.69360352 1.11352539 C-3.69360352 0.11352539 -3.69360352 0.11352539 0 0 Z " fill="#FDBD15" transform="translate(50.693603515625,45.886474609375)"/>
<path d="M0 0 C13.2 0 26.4 0 40 0 C40 13.2 40 26.4 40 40 C30.3784375 40.0309375 30.3784375 40.0309375 20.5625 40.0625 C18.53552979 40.071604 16.50855957 40.08070801 14.42016602 40.09008789 C12.8230801 40.09300703 11.22599345 40.09555559 9.62890625 40.09765625 C8.79194214 40.10277222 7.95497803 40.10788818 7.09265137 40.11315918 C5.06141735 40.11346924 3.03027529 40.06240188 1 40 C0 39 0 39 -0.11352539 35.30639648 C-0.11327427 33.66128709 -0.10771184 32.01617243 -0.09765625 30.37109375 C-0.09664917 29.60543091 -0.09564209 28.83976807 -0.09460449 28.05090332 C-0.08935663 25.17975373 -0.07539547 22.30862542 -0.0625 19.4375 C-0.041875 13.023125 -0.02125 6.60875 0 0 Z " fill="#8ABE15" transform="translate(46,4)"/>
<path d="M0 0 C13.2 0 26.4 0 40 0 C40.020625 6.414375 40.04125 12.82875 40.0625 19.4375 C40.071604 21.46447021 40.08070801 23.49144043 40.09008789 25.57983398 C40.09300703 27.1769199 40.09555559 28.77400655 40.09765625 30.37109375 C40.10277222 31.20805786 40.10788818 32.04502197 40.11315918 32.90734863 C40.11346924 34.93858265 40.06240188 36.96972471 40 39 C39 40 39 40 35.30639648 40.11352539 C33.66128709 40.11327427 32.01617243 40.10771184 30.37109375 40.09765625 C29.22259949 40.09614563 29.22259949 40.09614563 28.05090332 40.09460449 C25.17975373 40.08935663 22.30862542 40.07539547 19.4375 40.0625 C13.023125 40.041875 6.60875 40.02125 0 40 C0 26.8 0 13.6 0 0 Z " fill="#F15D34" transform="translate(4,4)"/>
<path d="M0 0 C0.89203125 0.01804687 1.7840625 0.03609375 2.703125 0.0546875 C3.71632813 0.08949219 3.71632813 0.08949219 4.75 0.125 C4.75 2.765 4.75 5.405 4.75 8.125 C3.0484375 8.3415625 3.0484375 8.3415625 1.3125 8.5625 C-2.05777201 8.73671478 -2.05777201 8.73671478 -3.25 10.125 C-3.61760731 12.45317964 -3.95241581 14.7868385 -4.25 17.125 C-0.62 17.125 3.01 17.125 6.75 17.125 C6.75 14.485 6.75 11.845 6.75 9.125 C9.72 8.465 12.69 7.805 15.75 7.125 C15.75 10.425 15.75 13.725 15.75 17.125 C18.72 17.125 21.69 17.125 24.75 17.125 C24.75 19.765 24.75 22.405 24.75 25.125 C21.78 25.125 18.81 25.125 15.75 25.125 C16.08 31.725 16.41 38.325 16.75 45.125 C19.39 45.125 22.03 45.125 24.75 45.125 C24.75 47.765 24.75 50.405 24.75 53.125 C14.87397541 54.71721311 14.87397541 54.71721311 10.75 52.125 C8.18570594 49.85349827 6.87585577 48.09170994 6.4284668 44.65527344 C6.35630134 41.69827452 6.40164986 38.76867823 6.5 35.8125 C6.51804687 34.78576172 6.53609375 33.75902344 6.5546875 32.70117188 C6.60167899 30.17537929 6.67341831 27.65006863 6.75 25.125 C3.12 25.125 -0.51 25.125 -4.25 25.125 C-4.25 34.365 -4.25 43.605 -4.25 53.125 C-7.22 53.125 -10.19 53.125 -13.25 53.125 C-13.25 43.885 -13.25 34.645 -13.25 25.125 C-15.23 25.125 -17.21 25.125 -19.25 25.125 C-19.25 22.485 -19.25 19.845 -19.25 17.125 C-17.27 17.125 -15.29 17.125 -13.25 17.125 C-13.29640625 16.46113281 -13.3428125 15.79726563 -13.390625 15.11328125 C-13.68656207 7.87339213 -13.68656207 7.87339213 -11.5 4.125 C-7.72175554 0.76656048 -5.05201734 -0.13294782 0 0 Z " fill="#818181" transform="translate(359.25,16.875)"/>
<path d="M0 0 C4.66743313 2.64959335 6.94520519 6.33561558 8.625 11.375 C9.33197501 18.54905784 8.92744416 24.42750366 4.625 30.375 C0.51352043 34.59760064 -3.92346925 36.32569242 -9.8359375 36.41015625 C-15.36660045 36.06968 -19.10385583 35.13767462 -23.375 31.375 C-27.85222549 25.56670747 -28.74413666 21.63468755 -28.375 14.375 C-27.2936044 8.77140463 -25.46515262 5.37426034 -21.375 1.375 C-14.65361866 -2.57875373 -7.15878355 -3.18612527 0 0 Z M-17.375 10.375 C-19.23027807 14.08555614 -18.82075277 18.32501771 -18.375 22.375 C-17.02521698 25.54321233 -17.02521698 25.54321233 -14.375 27.375 C-10.36696403 28.5409741 -8.32217289 28.80740501 -4.5 27.0625 C-2.2854069 25.54774837 -2.2854069 25.54774837 -1.375 23.375 C-1.2268456 21.42050156 -1.15375151 19.4598947 -1.125 17.5 C-1.09921875 16.45070313 -1.0734375 15.40140625 -1.046875 14.3203125 C-1.41637987 11.00356642 -1.99857537 9.68690632 -4.375 7.375 C-9.71206708 5.23124084 -13.43161932 6.19262655 -17.375 10.375 Z " fill="#838383" transform="translate(331.375,34.625)"/>
<path d="M0 0 C5.17227332 3.48827736 8.37349053 6.60081888 9.6875 12.8125 C10.44166458 20.17907187 9.21534572 25.63463681 4.5 31.5625 C-0.52047658 35.57888126 -4.97891257 37.14819862 -11.4375 36.75 C-17.47287284 35.87986956 -20.93559273 33.63597178 -24.625 28.75 C-27.66141754 23.46438429 -27.94983506 18.78751618 -27.3125 12.8125 C-25.31660301 6.44515471 -21.89168923 2.85775099 -16.125 -0.4375 C-10.64403903 -1.89908959 -5.34710019 -1.91688497 0 0 Z M-15.3125 8.8125 C-18.22691787 13.45049833 -17.95594696 18.52014877 -17.3125 23.8125 C-15.28941961 27.08055294 -14.02372568 27.60064554 -10.375 28.6875 C-7.00309462 28.82512879 -5.22046106 28.50881062 -2.3125 26.8125 C-0.38294235 23.77746661 -0.04077137 21.37599533 -0.0625 17.8125 C-0.05734375 16.966875 -0.0521875 16.12125 -0.046875 15.25 C-0.33104694 12.64230458 -0.93377286 11.03023903 -2.3125 8.8125 C-6.5318236 5.90262165 -11.0931764 5.90262165 -15.3125 8.8125 Z " fill="#858585" transform="translate(264.3125,34.1875)"/>
<path d="M0 0 C0 2.97 0 5.94 0 9 C-0.680625 8.835 -1.36125 8.67 -2.0625 8.5 C-5.4164822 7.92910941 -8.60389805 7.93340977 -12 8 C-12.33 9.32 -12.66 10.64 -13 12 C-12.13375 12.2475 -11.2675 12.495 -10.375 12.75 C-5.34405134 14.61331432 -0.58245916 17.12202159 2 22 C2.57732981 25.79388158 2.13993041 27.70264787 0.5 31.1875 C-2.67387991 34.7581149 -5.30666655 36.19383218 -10 37 C-14.12157082 36.98192293 -18.27153888 36.86423056 -22 35 C-22.4140625 32.93359375 -22.4140625 32.93359375 -22.625 30.4375 C-22.69976562 29.61121094 -22.77453125 28.78492187 -22.8515625 27.93359375 C-22.92503906 26.97646484 -22.92503906 26.97646484 -23 26 C-22.0409375 26.2165625 -22.0409375 26.2165625 -21.0625 26.4375 C-17.06155212 27.17236798 -13.04495104 27.58581111 -9 28 C-9 26.68 -9 25.36 -9 24 C-9.77085937 23.60167969 -10.54171875 23.20335938 -11.3359375 22.79296875 C-12.33882813 22.26316406 -13.34171875 21.73335937 -14.375 21.1875 C-15.37273437 20.66542969 -16.37046875 20.14335938 -17.3984375 19.60546875 C-20 18 -20 18 -22 15 C-22.72022276 10.52791917 -22.58211165 7.01330547 -20.3125 3.0625 C-14.39232168 -2.21765905 -7.36088615 -1.84022154 0 0 Z " fill="#868686" transform="translate(299,34)"/>
<path d="M0 0 C1.7421875 1.26953125 1.7421875 1.26953125 2.3515625 3.43359375 C2.39796875 4.24570312 2.444375 5.0578125 2.4921875 5.89453125 C2.54890625 6.71179687 2.605625 7.5290625 2.6640625 8.37109375 C2.68984375 8.99757813 2.715625 9.6240625 2.7421875 10.26953125 C1.9378125 9.91890625 1.1334375 9.56828125 0.3046875 9.20703125 C-3.99716417 8.07496502 -7.98799675 7.85439231 -12.2578125 9.26953125 C-15.10021274 12.11193149 -15.68926825 14.304502 -15.6953125 18.26953125 C-15.58260008 21.59699781 -15.44403503 22.97587265 -13.6328125 25.83203125 C-10.71164709 27.60010505 -8.67173953 28.13018729 -5.2578125 28.26953125 C-3.57544779 27.64353508 -1.9054163 26.98200857 -0.2578125 26.26953125 C0.7321875 26.59953125 1.7221875 26.92953125 2.7421875 27.26953125 C2.4121875 29.90953125 2.0821875 32.54953125 1.7421875 35.26953125 C-4.13156256 37.44026497 -9.12311055 37.65871169 -15.2578125 36.26953125 C-20.99850549 33.39918476 -24.23201691 29.34691802 -26.2578125 23.26953125 C-26.86274846 17.26670516 -26.2458855 12.62745526 -23.2578125 7.26953125 C-17.14049897 -0.00511187 -9.23994373 -2.98939356 0 0 Z " fill="#868686" transform="translate(209.2578125,33.73046875)"/>
<path d="M0 0 C0 2.97 0 5.94 0 9 C-1.98567708 8.90234375 -3.97135417 8.8046875 -5.95703125 8.70703125 C-8.66263515 9.09502416 -9.34361564 9.84370547 -11 12 C-11.50479657 14.6068023 -11.50479657 14.6068023 -11.51171875 17.54296875 C-11.54716797 18.61611328 -11.58261719 19.68925781 -11.61914062 20.79492188 C-11.64169922 21.91447266 -11.66425781 23.03402344 -11.6875 24.1875 C-11.72166016 25.31865234 -11.75582031 26.44980469 -11.79101562 27.61523438 C-11.87356314 30.4100574 -11.94269182 33.20456398 -12 36 C-13.47906892 36.02689216 -14.95827483 36.04634621 -16.4375 36.0625 C-17.26121094 36.07410156 -18.08492187 36.08570313 -18.93359375 36.09765625 C-21 36 -21 36 -22 35 C-22.08851529 32.40640678 -22.11525945 29.83960309 -22.09765625 27.24609375 C-22.09553383 26.08292381 -22.09553383 26.08292381 -22.09336853 24.89625549 C-22.08775345 22.40996506 -22.07519846 19.9237634 -22.0625 17.4375 C-22.05748694 15.75586067 -22.0529237 14.07421994 -22.04882812 12.39257812 C-22.03777913 8.26168434 -22.02050445 4.13085724 -22 0 C-18.7 0 -15.4 0 -12 0 C-11.67 0.66 -11.34 1.32 -11 2 C-10.29875 1.484375 -9.5975 0.96875 -8.875 0.4375 C-5.39112465 -1.30443767 -3.7016431 -0.94693195 0 0 Z " fill="#8B8B8B" transform="translate(238,34)"/>
<path d="M0 0 C3.3 0 6.6 0 10 0 C10.02465098 4.96622349 10.04283649 9.93241166 10.05493164 14.89868164 C10.0599719 16.58944316 10.06680405 18.28020029 10.07543945 19.97094727 C10.08751857 22.39600707 10.09323123 24.82100944 10.09765625 27.24609375 C10.10281754 28.00651474 10.10797882 28.76693573 10.11329651 29.55039978 C10.11349238 31.3673257 10.06197277 33.18413127 10 35 C9.505 35.495 9.505 35.495 9 36 C6.03 36 3.06 36 0 36 C0 24.12 0 12.24 0 0 Z " fill="#909090" transform="translate(169,34)"/>
<path d="M0 0 C0.66 0.33 1.32 0.66 2 1 C2 4 2 4 1.5 6.6875 C0.91836534 10.54082963 0.93612304 14.10350571 1 18 C1 18.99 1 19.98 1 21 C2.32 21.66 3.64 22.32 5 23 C5 23.99 5 24.98 5 26 C5.66 26.33 6.32 26.66 7 27 C7 27.66 7 28.32 7 29 C3.36161314 29.78475011 0.81416207 30.27755525 -2.75 29.0625 C-6.83204683 25.32062374 -7.83899579 20.83544801 -8.3125 15.4375 C-7.84918688 10.3410557 -6.8485178 6.2727767 -4 2 C-2 0.75 -2 0.75 0 0 Z " fill="#7D7D7D" transform="translate(311,37)"/>
<path d="M0 0 C0.33 0 0.66 0 1 0 C1.02578125 0.60328125 1.0515625 1.2065625 1.078125 1.828125 C1.43375828 6.96300302 1.43375828 6.96300302 3.6875 11.5 C6.57350434 13.37200281 8.56449869 13.85977546 12 14 C13.68236471 13.37400383 15.3523962 12.71247732 17 12 C17.99 12.33 18.98 12.66 20 13 C19.67 15.64 19.34 18.28 19 21 C13.13406968 23.16784381 8.12610515 23.4028478 2 22 C-1.96500901 19.94669176 -4.47267623 18.27650657 -6 14 C-4.68 13.67 -3.36 13.34 -2 13 C-2 12.34 -2 11.68 -2 11 C-1.34 11 -0.68 11 0 11 C0 7.37 0 3.74 0 0 Z " fill="#878787" transform="translate(192,48)"/>
<path d="M0 0 C0.90105469 0.00902344 1.80210937 0.01804688 2.73046875 0.02734375 C3.41753906 0.03894531 4.10460937 0.05054688 4.8125 0.0625 C4.18859375 0.33835938 3.5646875 0.61421875 2.921875 0.8984375 C0.15647156 2.42453051 -0.73955628 4.31140694 -2.1875 7.0625 C-0.8675 7.3925 0.4525 7.7225 1.8125 8.0625 C0.1728125 8.43375 0.1728125 8.43375 -1.5 8.8125 C-5.43055708 10.14489223 -6.24708472 10.56028706 -8.1875 14.0625 C-8.54907879 17.1102445 -8.54907879 17.1102445 -8.375 20.3125 C-8.34792969 21.39015625 -8.32085937 22.4678125 -8.29296875 23.578125 C-8.25816406 24.39796875 -8.22335937 25.2178125 -8.1875 26.0625 C-9.1775 25.7325 -10.1675 25.4025 -11.1875 25.0625 C-11.875 23 -11.875 23 -12.1875 21.0625 C-11.8575 21.0625 -11.5275 21.0625 -11.1875 21.0625 C-11.21070313 20.30324219 -11.23390625 19.54398438 -11.2578125 18.76171875 C-11.27585937 17.76785156 -11.29390625 16.77398437 -11.3125 15.75 C-11.33570313 14.76386719 -11.35890625 13.77773438 -11.3828125 12.76171875 C-11.1875 10.0625 -11.1875 10.0625 -9.1875 7.0625 C-9.8475 6.4025 -10.5075 5.7425 -11.1875 5.0625 C-12.1775 5.0625 -13.1675 5.0625 -14.1875 5.0625 C-9.21630553 1.63789937 -6.0437958 -0.07849085 0 0 Z " fill="#8F8F8F" transform="translate(322.1875,32.9375)"/>
<path d="M0 0 C0.91007812 0.00902344 1.82015625 0.01804687 2.7578125 0.02734375 C3.45648438 0.03894531 4.15515625 0.05054687 4.875 0.0625 C4.875 2.7025 4.875 5.3425 4.875 8.0625 C3.204375 8.2790625 3.204375 8.2790625 1.5 8.5 C-1.94642047 8.84622035 -1.94642047 8.84622035 -4.125 10.0625 C-4.125 9.4025 -4.125 8.7425 -4.125 8.0625 C-5.445 8.3925 -6.765 8.7225 -8.125 9.0625 C-8.455 8.4025 -8.785 7.7425 -9.125 7.0625 C-10.115 6.7325 -11.105 6.4025 -12.125 6.0625 C-6.14123377 -0.07873377 -6.14123377 -0.07873377 0 0 Z " fill="#878787" transform="translate(359.125,16.9375)"/>
<path d="M0 0 C0.33 0 0.66 0 1 0 C1 12.54 1 25.08 1 38 C-11.54 38 -24.08 38 -37 38 C-37 37.34 -37 36.68 -37 36 C-25.12 36 -13.24 36 -1 36 C-0.67 24.12 -0.34 12.24 0 0 Z " fill="#E15A2E" transform="translate(42,5)"/>
<path d="M0 0 C1.134375 0.020625 2.26875 0.04125 3.4375 0.0625 C3.4375 2.7025 3.4375 5.3425 3.4375 8.0625 C-6.31753356 9.63520694 -6.31753356 9.63520694 -10.5625 7.0625 C-11.2225 6.0725 -11.8825 5.0825 -12.5625 4.0625 C-11.375 2.5625 -11.375 2.5625 -9.5625 1.0625 C-6.9375 0.9375 -6.9375 0.9375 -4.5625 1.0625 C-3.5625 0.0625 -3.5625 0.0625 0 0 Z " fill="#878787" transform="translate(380.5625,61.9375)"/>
<path d="M0 0 C1 1 2 2 3 3 C3.556875 3.391875 4.11375 3.78375 4.6875 4.1875 C6.87968556 7.21480387 6.17970042 10.34609138 6 14 C5.34 14 4.68 14 4 14 C4 14.66 4 15.32 4 16 C2.35 16.33 0.7 16.66 -1 17 C-2.2866645 14.426671 -2.16824551 12.49776962 -2.1875 9.625 C-2.20167969 8.66851562 -2.21585938 7.71203125 -2.23046875 6.7265625 C-1.99745572 3.96989983 -1.40920164 2.35052605 0 0 Z " fill="#757575" transform="translate(186,45)"/>
<path d="M0 0 C2.875 0.6875 2.875 0.6875 3.875 1.6875 C4.125 5.125 4.125 5.125 3.875 8.6875 C0.875 10.6875 0.875 10.6875 -2.1875 10.5 C-5.125 9.6875 -5.125 9.6875 -7.125 6.6875 C-6.9375 4.125 -6.9375 4.125 -6.125 1.6875 C-3.125 -0.3125 -3.125 -0.3125 0 0 Z " fill="#898989" transform="translate(175.125,19.3125)"/>
<path d="M0 0 C2.64 0.66 5.28 1.32 8 2 C7.01 2.33 6.02 2.66 5 3 C5.33 3.66 5.66 4.32 6 5 C6.99 4.67 7.98 4.34 9 4 C9.042721 5.66611905 9.04063832 7.33382885 9 9 C8.67 9.33 8.34 9.66 8 10 C2.40281247 9.95853935 -2.44427407 9.49272321 -7 6 C-4.6921509 4.84607545 -2.52769669 4.46562834 0 4 C0 2.68 0 1.36 0 0 Z " fill="#8D8D8D" transform="translate(316,61)"/>
<path d="M0 0 C0 2.97 0 5.94 0 9 C-2.64 8.67 -5.28 8.34 -8 8 C-7.01 7.67 -6.02 7.34 -5 7 C-5 6.34 -5 5.68 -5 5 C-5.99 4.67 -6.98 4.34 -8 4 C-8 3.34 -8 2.68 -8 2 C-8.66 1.67 -9.32 1.34 -10 1 C-6.42181037 -1.33958553 -4.07775191 -0.9267618 0 0 Z M-9 5 C-7 6 -7 6 -7 6 Z " fill="#969696" transform="translate(238,34)"/>
<path d="M0 0 C1.98 0.495 1.98 0.495 4 1 C4.33 3.97 4.66 6.94 5 10 C3.02 9.34 1.04 8.68 -1 8 C-0.34 7.67 0.32 7.34 1 7 C0.67 6.01 0.34 5.02 0 4 C0 2.66666667 0 1.33333333 0 0 Z " fill="#989898" transform="translate(207,34)"/>
<path d="M0 0 C0.99 0.33 1.98 0.66 3 1 C2.67 3.64 2.34 6.28 2 9 C1.01 9 0.02 9 -1 9 C-0.34 7.02 0.32 5.04 1 3 C-0.98 3 -2.96 3 -5 3 C-2 1 -2 1 0 0 Z " fill="#A2A2A2" transform="translate(209,60)"/>
<path d="M0 0 C5.875 0.875 5.875 0.875 7 2 C7.04092937 4.33297433 7.04241723 6.66705225 7 9 C5 7.6875 5 7.6875 3 6 C3 5.01 3 4.02 3 3 C1.56249809 1.31201173 1.56249809 1.31201173 0 0 Z " fill="#9E9E9E" transform="translate(172,19)"/>
<path d="M0 0 C1.32 0.33 2.64 0.66 4 1 C4.33 2.32 4.66 3.64 5 5 C5.66 5 6.32 5 7 5 C6.67 5.66 6.34 6.32 6 7 C4.02 6.01 2.04 5.02 0 4 C0 2.68 0 1.36 0 0 Z " fill="#7C7C7C" transform="translate(245,58)"/>
<path d="M0 0 C0.66 0.33 1.32 0.66 2 1 C1.34 3.31 0.68 5.62 0 8 C-1.32 7.01 -2.64 6.02 -4 5 C-3.67 4.01 -3.34 3.02 -3 2 C-2.01 2 -1.02 2 0 2 C0 1.34 0 0.68 0 0 Z " fill="#8D8D8D" transform="translate(190,59)"/>
<path d="M0 0 C2.95183101 2.95183101 3.08663988 5.95511947 4 10 C3.01 9.67 2.02 9.34 1 9 C0.25 7.0625 0.25 7.0625 0 5 C0.33 4.34 0.66 3.68 1 3 C0.34 3 -0.32 3 -1 3 C-0.67 2.01 -0.34 1.02 0 0 Z " fill="#9C9C9C" transform="translate(126,32)"/>
<path d="M0 0 C0.33 0.99 0.66 1.98 1 3 C0.34 3.66 -0.32 4.32 -1 5 C-2.32 5 -3.64 5 -5 5 C-4.1875 3.0625 -4.1875 3.0625 -3 1 C-2.01 0.67 -1.02 0.34 0 0 Z " fill="#929292" transform="translate(177,25)"/>
<path d="M0 0 C0.33 0 0.66 0 1 0 C1.33 3.63 1.66 7.26 2 11 C1.01 10.67 0.02 10.34 -1 10 C-1.6875 7.9375 -1.6875 7.9375 -2 6 C-1.67 6 -1.34 6 -1 6 C-0.67 4.02 -0.34 2.04 0 0 Z " fill="#A2A2A2" transform="translate(312,48)"/>
<path d="M0 0 C0.66 0.33 1.32 0.66 2 1 C0.68 2.65 -0.64 4.3 -2 6 C-2.99 5.67 -3.98 5.34 -5 5 C-3.35 3.35 -1.7 1.7 0 0 Z " fill="#969696" transform="translate(352,18)"/>
</svg>
