<svg xmlns="http://www.w3.org/2000/svg" fill="none" viewBox="0 0 96 96" id="Discord-Icon--Streamline-Svg-Logos"><desc>Discord Icon Streamline Icon: https://streamlinehq.com</desc><path fill="#5865f2" d="M80.6269 17.7115c-6.0848 -2.8469 -12.5909 -4.9159 -19.3929 -6.0941 -0.8354 1.5103 -1.8113 3.5417 -2.4842 5.1577 -7.2307 -1.0874 -14.3949 -1.0874 -21.4926 0 -0.6727 -1.616 -1.6709 -3.6474 -2.5137 -5.1577 -6.8093 1.1782 -13.323 3.2548 -19.4077 6.1092C3.06268 36.2728 -0.264344 54.3584 1.39917 72.1871c8.14015 6.0789 16.02893 9.7716 23.78463 12.188 1.9149 -2.6355 3.6227 -5.437 5.094 -8.3896 -2.8021 -1.0647 -5.4859 -2.3787 -8.0218 -3.904 0.6728 -0.4985 1.3309 -1.0195 1.9666 -1.5557 15.467 7.2343 32.2723 7.2343 47.5544 0 0.6433 0.5362 1.3012 1.0572 1.9666 1.5557 -2.5433 1.5328 -5.2344 2.8467 -8.0365 3.9116 1.4712 2.945 3.1717 5.7542 5.094 8.3895 7.7631 -2.4164 15.6592 -6.109 23.7994 -12.1955 1.9519 -20.6681 -3.3344 -38.5875 -13.9736 -54.4756Zm-48.242 43.5111c-4.643 0 -8.4507 -4.3346 -8.4507 -9.613 0 -5.2784 3.7264 -9.6204 8.4507 -9.6204 4.7245 0 8.532 4.3344 8.4507 9.6204 0.0074 5.2784 -3.7262 9.613 -8.4507 9.613Zm31.2298 0c-4.643 0 -8.4507 -4.3346 -8.4507 -9.613 0 -5.2784 3.7263 -9.6204 8.4507 -9.6204 4.7244 0 8.532 4.3344 8.4507 9.6204 0 5.2784 -3.7263 9.613 -8.4507 9.613Z" stroke-width="1"></path></svg>