<svg xmlns="http://www.w3.org/2000/svg" fill="none" viewBox="0 0 96 96" id="Facebook--Streamline-Svg-Logos"><desc>Facebook Streamline Icon: https://streamlinehq.com</desc><path fill="#1877f2" d="M95 48C95 22.0426 73.9574 1 48 1S1 22.0426 1 48c0 23.4591 17.1872 42.9031 39.6562 46.429V61.5859H28.7227V48h11.9335V37.6453c0 -11.7794 7.0168 -18.2859 17.7526 -18.2859 5.1422 0 10.5209 0.9179 10.5209 0.9179v11.5665h-5.9266c-5.8386 0 -7.6593 3.6229 -7.6593 7.3398V48h13.0351l-2.0838 13.5859H55.3438V94.429C77.8128 90.9031 95 71.4591 95 48Z" stroke-width="1"></path><path fill="#ffffff" d="M66.2951 61.5859 68.3789 48H55.3438v-8.8164c0 -3.7169 1.8207 -7.3398 7.6593 -7.3398h5.9266V20.2773s-5.3787 -0.9179 -10.5209 -0.9179c-10.7358 0 -17.7526 6.5065 -17.7526 18.2859V48H28.7227v13.5859h11.9335V94.429C43.0491 94.8045 45.5017 95 48 95c2.4983 0 4.9509 -0.1955 7.3438 -0.571V61.5859h10.9513Z" stroke-width="1"></path></svg>